<svg version="1.1" xmlns="http://www.w3.org/2000/svg" xmlns:xlink="http://www.w3.org/1999/xlink" width="47.32733" height="31.25884" viewBox="0,0,47.32733,31.25884"><g transform="translate(-216.33633,-163.68456)"><g data-paper-data="{&quot;isPaintingLayer&quot;:true}" fill-rule="nonzero" stroke="none" stroke-linecap="butt" stroke-linejoin="miter" stroke-miterlimit="10" stroke-dasharray="" stroke-dashoffset="0" style="mix-blend-mode: normal"><g stroke-width="0"><g fill="#242424"><path d="M217.01982,194.9434v-21.3284h46.64384v21.3284z"/><path d="M263.65425,173.52691c0,4.21123 -10.43868,7.62511 -23.31546,7.62511c-12.87677,0 -23.31546,-3.41387 -23.31546,-7.62511c0,-4.21123 10.43869,-7.62512 23.31546,-7.62512c12.87677,0 23.31546,3.41388 23.31546,7.62512z"/></g><g fill="#505050"><path d="M216.33633,194.09819v-21.3284h46.64384v21.3284z"/><path d="M262.97076,172.68171c0,4.21123 -10.43868,7.62511 -23.31546,7.62511c-12.87678,0 -23.31546,-3.41387 -23.31546,-7.62511c0,-4.21123 10.43868,-7.62511 23.31546,-7.62511c12.87678,0 23.31546,3.41387 23.31546,7.62511z"/></g></g><text transform="translate(227.46905,187.3836) scale(0.51996,0.54481)" font-size="40" xml:space="preserve" fill="#a0a0a0" fill-rule="nonzero" stroke="none" stroke-width="1" stroke-linecap="butt" stroke-linejoin="miter" stroke-miterlimit="10" stroke-dasharray="" stroke-dashoffset="0" font-family="Sans Serif" font-weight="normal" text-anchor="start" style="mix-blend-mode: normal"><tspan x="0" dy="0">R2</tspan></text></g></g></svg>