<svg version="1.1" xmlns="http://www.w3.org/2000/svg" xmlns:xlink="http://www.w3.org/1999/xlink" width="35.07735" height="50.81085" viewBox="0,0,35.07735,50.81085"><g transform="translate(-222.46132,-154.59458)"><g data-paper-data="{&quot;isPaintingLayer&quot;:true}" fill-rule="nonzero" stroke="none" stroke-width="0" stroke-linecap="butt" stroke-linejoin="miter" stroke-miterlimit="10" stroke-dasharray="" stroke-dashoffset="0" style="mix-blend-mode: normal"><g fill="#262626"><path d="M223.1905,173.82077c0,-9.46774 7.67512,-17.14285 17.14285,-17.14285c9.46774,0 17.14286,7.67512 17.14286,17.14285c0,9.46774 -7.67512,17.14286 -17.14286,17.14286c-9.46774,0 -17.14285,-7.67512 -17.14285,-17.14286z"/><path d="M223.25297,188.26258c0,-9.46774 7.67512,-17.14286 17.14286,-17.14286c9.46774,0 17.14285,7.67512 17.14285,17.14286c0,9.46774 -7.67511,17.14285 -17.14285,17.14285c-9.46774,0 -17.14286,-7.67512 -17.14286,-17.14285z"/><path d="M223.22026,188.92494v-16.42857h34.28571v16.42857z"/></g><g fill="#505050"><path d="M222.46132,171.73744c0,-9.46774 7.67512,-17.14286 17.14286,-17.14286c9.46774,0 17.14286,7.67512 17.14286,17.14286c0,9.46774 -7.67512,17.14286 -17.14286,17.14286c-9.46774,0 -17.14286,-7.67512 -17.14286,-17.14286z"/><path d="M222.52379,186.17925c0,-9.46774 7.67512,-17.14286 17.14286,-17.14286c9.46774,0 17.14285,7.67512 17.14285,17.14286c0,9.46774 -7.67511,17.14285 -17.14285,17.14285c-9.46774,0 -17.14286,-7.67512 -17.14286,-17.14285z"/><path d="M222.49109,186.8416v-16.42857h34.28571v16.42857z"/></g><path d="M227.58778,175.21245v-2.26479h24.15773v2.26479z" fill="#a0a0a0"/><path d="M227.58778,181.25188v-2.26479h24.15773v2.26479z" fill="#a0a0a0"/><path d="M227.58778,186.91385v-2.26479h24.15773v2.26479z" fill="#a0a0a0"/></g></g></svg>