<svg version="1.1" xmlns="http://www.w3.org/2000/svg" xmlns:xlink="http://www.w3.org/1999/xlink" width="51.07143" height="51.96429" viewBox="0,0,51.07143,51.96429"><g transform="translate(-215,-155)"><g data-paper-data="{&quot;isPaintingLayer&quot;:true}" fill-rule="nonzero" stroke-linecap="butt" stroke-linejoin="miter" stroke-miterlimit="10" stroke-dasharray="" stroke-dashoffset="0" style="mix-blend-mode: normal"><path d="M216.07143,181.96429c0,-13.80712 11.19288,-25 25,-25c13.80712,0 25,11.19288 25,25c0,13.80712 -11.19288,25 -25,25c-13.80712,0 -25,-11.19288 -25,-25z" fill="#262626" stroke="none" stroke-width="NaN"/><path d="M215,180c0,-13.80712 11.19288,-25 25,-25c13.80712,0 25,11.19288 25,25c0,13.80712 -11.19288,25 -25,25c-13.80712,0 -25,-11.19288 -25,-25z" fill="#505050" stroke="none" stroke-width="NaN"/><path d="M222.94643,180c0,-9.41843 7.63514,-17.05357 17.05357,-17.05357c9.41843,0 17.05357,7.63514 17.05357,17.05357c0,9.41843 -7.63514,17.05357 -17.05357,17.05357c-9.41843,0 -17.05357,-7.63514 -17.05357,-17.05357z" fill="none" stroke="#ff6d4b" stroke-width="3"/></g></g></svg>