<svg version="1.1" xmlns="http://www.w3.org/2000/svg" xmlns:xlink="http://www.w3.org/1999/xlink" width="37.02559" height="60.23466" viewBox="0,0,37.02559,60.23466"><g transform="translate(-222.33503,-148.05819)"><g data-paper-data="{&quot;isPaintingLayer&quot;:true}" fill-rule="nonzero" stroke="none" stroke-linecap="butt" stroke-linejoin="miter" stroke-miterlimit="10" stroke-dasharray="" stroke-dashoffset="0" style="mix-blend-mode: normal"><g fill="#262626" stroke-width="0"><path d="M223.52385,167.28438c0,-9.46774 7.67512,-17.14285 17.14285,-17.14285c9.46774,0 17.14286,7.67512 17.14286,17.14285c0,9.46774 -7.67512,17.14286 -17.14286,17.14286c-9.46774,0 -17.14285,-7.67512 -17.14285,-17.14286z"/><path d="M223.58632,181.72619c0,-9.46774 7.67512,-17.14286 17.14286,-17.14286c9.46774,0 17.14285,7.67512 17.14285,17.14286c0,9.46774 -7.67511,17.14285 -17.14285,17.14285c-9.46774,0 -17.14286,-7.67512 -17.14286,-17.14285z"/><path d="M223.55361,182.38855v-16.42857h34.28571v16.42857z"/></g><g fill="#505050" stroke-width="0"><path d="M222.79468,165.20105c0,-9.46774 7.67512,-17.14286 17.14286,-17.14286c9.46774,0 17.14286,7.67512 17.14286,17.14286c0,9.46774 -7.67512,17.14286 -17.14286,17.14286c-9.46774,0 -17.14286,-7.67512 -17.14286,-17.14286z"/><path d="M222.85715,179.64286c0,-9.46774 7.67512,-17.14286 17.14286,-17.14286c9.46774,0 17.14285,7.67512 17.14285,17.14286c0,9.46774 -7.67511,17.14285 -17.14285,17.14285c-9.46774,0 -17.14286,-7.67512 -17.14286,-17.14285z"/><path d="M222.82445,180.30521v-16.42857h34.28571v16.42857z"/></g><g stroke-width="1" font-family="Malgun Gothic" font-weight="normal" font-size="40" text-anchor="start"><text transform="translate(222.8986,205.64365) scale(0.25231,0.25231)" font-size="40" xml:space="preserve" fill="#bfbfbf" fill-rule="nonzero" stroke="none" stroke-width="1" stroke-linecap="butt" stroke-linejoin="miter" stroke-miterlimit="10" stroke-dasharray="" stroke-dashoffset="0" font-family="Malgun Gothic" font-weight="normal" text-anchor="start" style="mix-blend-mode: normal"><tspan x="0" dy="0">Options</tspan></text><text transform="translate(222.46118,205.20623) scale(0.25231,0.25231)" font-size="40" xml:space="preserve" fill="#f6f6f6" fill-rule="nonzero" stroke="none" stroke-width="1" stroke-linecap="butt" stroke-linejoin="miter" stroke-miterlimit="10" stroke-dasharray="" stroke-dashoffset="0" font-family="Malgun Gothic" font-weight="normal" text-anchor="start" style="mix-blend-mode: normal"><tspan x="0" dy="0">Options</tspan></text></g></g></g></svg>